<?xml version="1.0" encoding="utf-8"?>
<!-- Generator: Adobe Illustrator 18.0.0, SVG Export Plug-In . SVG Version: 6.00 Build 0)  -->
<!DOCTYPE svg PUBLIC "-//W3C//DTD SVG 1.1//EN" "http://www.w3.org/Graphics/SVG/1.1/DTD/svg11.dtd">
<svg version="1.1" id="Vector_Version" xmlns="http://www.w3.org/2000/svg" xmlns:xlink="http://www.w3.org/1999/xlink" x="0px"
	 y="0px" viewBox="0 0 800 800" enable-background="new 0 0 800 800" xml:space="preserve">
<g id="trophy">
	<g id="cup">
		<path fill="#600000" d="M345.5,465.1c0-7.4-2.4-13.9-6.4-20c1,1.1,2,2.3,3.1,3.4L488.7,302H307.6c0,10-0.1,17.8-0.1,26.5
			c-1.5-9.7-7.6-29.1-30.6-29.1c-30.7,0-33.3,30.9-33.3,39.2c0,69.4,95.7,88.9,95.7,126.4c0,10.7-16.8,11.7-20.2,6.1
			c-0.8-0.6-3.3,1.7-2.6,3c4.7,4.7,10,5.9,13.1,5.9C339,479.9,345.5,471.8,345.5,465.1z M255.5,340.9c0-22.4,12.7-29.2,21.5-29.2
			c8.8,0,24.1,4.1,24.1,20.7c0,10.1-5,20.3-5,20.3c-0.3,1.9,3.3,3.9,4.8,3.1c0,0,5-9.5,6.5-18.8c0,44.8,2,70.2,23.3,98.2
			C305.2,409.4,255.5,389.6,255.5,340.9z"/>
		<path fill="#600000" d="M556.4,338.1c0-8.2-2.6-39.6-33.3-39.6c-23,0-29.2,20.3-30.6,30c0-5-0.1-9.7-0.1-14.6L349.8,456.6
			c7.4,7.7,16.1,16,26.2,24.2c8,51.8-55.4,48.2-55.4,70.2h158.8c0-22-63.4-18.4-55.4-70.2c15.5-12.6,27.6-24.5,36.9-34.8
			c-4,6.1-6.4,12.2-6.4,19.5c0,6.7,6.5,14.6,15.9,14.6c3.1,0,8.4-1.3,13.1-6c0.7-1.3-1.8-3.7-2.6-3.1c-3.3,5.6-20.2,4.4-20.2-6.3
			C460.8,427.2,556.4,407.5,556.4,338.1z M492.6,336.9c1.6,9.3,6.5,18.8,6.5,18.8c1.5,0.8,5.2-1.2,4.8-3.1c0,0-5-10.2-5-20.3
			c0-16.6,15.3-20.7,24.1-20.7c8.9,0,21.5,6.9,21.5,29.2c0,48.7-49.7,68.6-75.2,94.2C490.5,407.1,492.6,381.6,492.6,336.9z"/>
	</g>
	<path id="Hat_New" display="none" fill-rule="evenodd" clip-rule="evenodd" fill="#FFFFFF" d="M395.6,328.1
		c-7.9,0.2-12.1,2.2-12.1,2.2c-2.9-2.2-11.5-12.9-14.9-12.7c-2-0.2-5.9,3.3-10.2,5.4c-4.3,2.1-14,3.9-21.5,13.6
		c-7.5,9.6-0.5,30.7,0,32.4c6.3,2.4,20.3-5,26.7-9c7.5-4.8,21.6-18.2,23.4-26c0,0,3,2.7,6.3,4.7c-1.1,7.5-14.4,21.5-27,29.6
		c-12.4,8-17.9,8.6-22.8,8.2c-4.3-0.3-6.9-5.9-6.9-5.9s-9.5,14.6-6.3,22.5c2.8,7.1,15.7,5,27.9-0.6c14.9-6.9,23.6-14.8,23.6-14.8
		s15.5-10.1,24.3-30.7C412,333.1,403.5,327.8,395.6,328.1z M335.2,347.9c-1.8,0.7-2.3-1.1-1.6-1.8c0.8-0.7,1.3,0.5,6.8-3.8
		c2.8-2.1,12.6-12.7,12.4-11.8c-0.4,1.5-9.4,11.5-11.9,13.8C338.5,346.4,337,347.2,335.2,347.9z M342.6,349
		c-4.4-2.3,22.2-31.8,25.3-27.3C372,327.6,347,351.3,342.6,349z M368.3,346.6c-6.6,5.9-18.6,7.9-18.9,6.5
		c-0.4-1.4,7.8-4.8,14.7-12.7c5.8-6.6,7.4-13,8.6-13C373.8,327.3,373.7,341.6,368.3,346.6z"/>
	<path id="shoe_v2" display="none" fill="#FFFFFF" d="M462.8,388.9l1.6-4.6c-1.2,1-3.4,2.5-6.2,4.3c-0.2-0.3-0.4-0.4-0.5-0.5
		c0,0-1.2-4.8-4-3.9c-3.9,1.3-21.4,12.6-26.9,18.1c-1.5,1.5-2.1,3.1-2,4.5c-0.2,0.2-0.4,0.4-0.5,0.6c-4.4,6.4,9.3,12.6,10.6,13.2
		c-0.7,1.1-1.3,2.1-1.9,3c-4.9-1.8-13.8-4.7-18.2-2.5c-2,1.1-3.6,2.4-4.9,3.9c-9.6,2.5-9.3,6.2-9.5,7.9c-1.3,0.4-2.7,1-4.5,1.8
		c-5.3,2.4-2.9,8.2,0.4,8.8c3.4,0.6,34.8,1.6,39.8-3.1c5.2-4.8,6.5-12.5,13.9-22.4c0,0,2.8,6.6,1.5,14l1.9,0.9l2.1-0.6
		c0,0-0.1-10.4,3-16.9c3.1-6.6,5.8-10.7,5.9-12.6c0.2-3-2.5-8.5-4.6-11.8C461.6,389.7,462.8,388.9,462.8,388.9z M450.8,390.3
		c-2.4,2.2-4.2,4.7-5.5,7.1c-0.3,0.2-0.6,0.3-0.9,0.5c-6.2,3.5-11.8,5.7-15.6,7.5C434.1,399.7,450.8,390.3,450.8,390.3z
		 M443.5,402.5c-0.6,2.8-0.6,5.4,0,7.4c-1.3,1.2-2.7,3.2-4.1,5.4c-4.5-2.4-9.1-4.3-11.1-5.7C431.2,408.2,437.2,405.9,443.5,402.5z
		 M427.7,413.4c0.9,0.8,1.9,1.4,2.6,1.8c1.2,0.6,4.1,2.1,6.9,3.7c-0.2,0.3-0.4,0.7-0.6,1C435.3,419.1,429.9,416.1,427.7,413.4z
		 M423.9,432.2c5.5,2.5,10.2,5.4,11.6,6.3c-0.6,0.7-1.2,1.4-1.8,1.9c-4.3-3.3-8.4-5.8-12.1-7.8c0.8-0.1,1.5-0.2,2-0.4
		C423.8,432.3,423.8,432.3,423.9,432.2z M416.5,435.9c3.1,2.9,5.6,6.2,7.2,8.6c-1.1,0.1-2.3,0.2-3.5,0.2
		C419.4,443.1,417.9,439.5,416.5,435.9z M408.8,433.1c0.1-0.8,0.2-1.7,0.4-2.5c0.3,0.2,0.7,0.4,1,0.6c-0.1,0.6-0.1,1.1-0.1,1.7
		C409.7,433,409.3,433.1,408.8,433.1z M421.6,431.3c-0.7,0.1-1.4,0.2-2.1,0.4c-1.9-0.9-3.7-1.7-5.3-2.2c0-0.2-0.1-0.3-0.1-0.5
		C416.5,429.4,419.1,430.2,421.6,431.3z M412.4,425.7c0.7-0.3,2.3-0.1,4.3,0.3c-1.7,0-3.3,0.1-4.9,0.3
		C411.9,426.1,412.1,425.9,412.4,425.7z M404.3,444.2c-0.6-0.1-0.9-0.1-1.1-0.2c-1.2-0.3-2.7-6.3-1.6-7.7c0.4-0.5,1.5-1,3.1-1.3
		C403.8,439.1,404.2,442.8,404.3,444.2z M403.3,434.1c0-0.9,0.2-2.8,1.2-4.3c0.4-0.3,0.9-0.5,1.3-0.7c0.4,0.1,0.7,0.3,1.1,0.4
		c-0.8,1.4-1.4,2.8-1.8,4.2C404.5,433.9,403.9,434,403.3,434.1z M408.8,434.3c0.5-0.1,0.9-0.1,1.4-0.2c0,3.6,0.6,7.3,1.4,10.7
		c-0.3,0-0.7,0-1,0C410.1,443.3,408.7,438.8,408.8,434.3z M440.1,430.6c-1.1-0.4-3.8-1.2-7.4-2.2c0.8-1.3,3.2-5.2,5.9-9.1
		c3.2,1.8,6,3.1,6,3.1l0,0C442.7,425,441.1,428.3,440.1,430.6z M453.4,412.2c-1.4,1-4.1,4.1-6.7,7.7c-1.7-1.4-3.7-2.6-5.7-3.8
		c2.3-3.3,4.3-6.1,4.9-6.8c1.5-1.6,7.1-5.4,8.6-5.3L453.4,412.2z"/>
	<path id="shoe_v2.1" fill="#FFFFFF" d="M459.8,375.8c-2.7-0.5-12,7.4-12,7.4s-2.4,2.2-4.6,5.1c-4.9-0.7-8.8-0.5-9.2,2
		c-5.4,7.7-7.5,14.8-15.2,24.3c-0.8,0.1-1.5,0.3-2.1,0.5c-1.5,0.6-3.4,2.2-4.1,3.5c-1.3,0.5-3.1,2.1-3.1,2.8c0,0.4,0,0.8,0,1.2
		c-1.2,0.3-2.3,0.7-3.4,1.3c-0.3,0.4-1,1.3-1.2,2.6c-4.7,2-4.9,5.9-4.8,7.2c-0.8,0.4-1.4,0.7-1.7,0.9c-3.2,1.7-5.6,4.9-3.3,7.5
		c2.6,2.9,10,6.7,26.1,3.9c0,0,8-1,12.9-3.8c5.1-2.8,7.2-6.6,8.5-11.5c1.5-5.5,4.7-10.3,4.7-10.3c2.6-3.5,3.4-4.9,5.7-7
		c2,5.4,0.1,13-1.2,14.6l-0.2,2.2l4.1,1.9l3.8-1.4v-2.8c0,0-4.5-10.5,7.3-25.2C473.2,395,462.5,376.3,459.8,375.8z M441.9,390.1
		c-0.6,1-1.2,2-1.6,3c-1.8-0.5-3.1-1.2-3.2-2.2C437.5,389.8,439.4,389.7,441.9,390.1z M434.7,392.3c1,1.1,2.9,2,5.1,2.7
		c-0.7,4.3,1.2,9.3,1.9,10.9c-2.4,2.7-4.9,7.2-7.3,11.3c-4.2-1.3-9.1-2.5-13-2.7C427.8,405.9,430.2,399.3,434.7,392.3z M419.3,417.1
		c5.7-0.1,11.8,1.8,13.7,2.4c-0.8,1.4-1.7,2.6-2.4,3.6c-2.1-0.2-4.1-0.4-6.1-0.6c-2.3-1.2-4.8-2.4-7-3.2
		C418.1,418.6,418.7,417.8,419.3,417.1z M417,425.4c-0.4-0.3-0.8-0.5-1.1-0.8c0-0.1-0.1-0.2-0.1-0.3c2.7,0.2,5.8,0.6,9.2,1
		c0.5,0.3,1,0.6,1.4,0.8c-0.4,0.2-0.9,0.3-1.4,0.4C422.9,426.1,420.7,425.6,417,425.4z M429.2,426.1c0.1-0.1,0.2-0.2,0.3-0.3
		c3.8,0.4,8,0.6,12.4,0.4c-0.6,1.5-1.1,2.9-1.5,4.2c-7.6-1.3-10.9-2.4-13.7-3.3C427.8,426.8,428.7,426.5,429.2,426.1z M416.9,422
		c-0.6,0-1.3,0-1.9,0c0.1-0.2,0.3-0.3,0.4-0.5C416,421.6,416.4,421.8,416.9,422z M414.7,417.8c0.6-0.2,1.1-0.3,1.7-0.4
		c-0.4,0.4-0.8,0.9-1.2,1.3c-0.2-0.1-0.4-0.1-0.7-0.1C414.7,418.3,414.7,418,414.7,417.8z M414.3,428.1c0.1,0.3,0.3,0.6,0.4,0.9
		c-0.1,0-0.2,0-0.2,0.1c-0.1-0.3-0.3-0.6-0.4-0.9C414.2,428.1,414.3,428.1,414.3,428.1z M411.8,420.8c0.1,0,0.3,0,0.5,0
		c0,0.4,0,0.9,0.1,1.4c0,0-0.1,0-0.1,0c-0.2-0.1-0.3-0.2-0.4-0.3C411.8,421.4,411.8,421.1,411.8,420.8z M410.9,428
		c0.2,0.6,0.4,1.1,0.6,1.7c-0.5,0.1-0.9,0.2-1.4,0.3c-0.3,0.1-0.7,0.2-1,0.3c-0.6-0.8-1-1.5-1.3-2.1
		C408.7,428.1,409.8,428,410.9,428z M409.8,424.5c0.1,0.3,0.1,0.6,0.2,0.9c-1.2,0.1-2.2,0.3-3.2,0.5c0-0.1,0-0.1,0-0.1
		C407.6,425.1,408.6,424.7,409.8,424.5z M403.8,428.7c0,0,0.5-0.1,1.4-0.2c0.3,0.8,0.8,1.6,1.7,2.5c-1.7,0.6-3.3,1.2-4.7,1.8
		C402.4,429.1,403.8,428.7,403.8,428.7z M408.8,445.2c-3.3,0-14.2-2.1-13.3-6.2c0.9-4.2,11.9-7.4,16.4-8.4c1.9,4.8,4.2,10,4,14.4
		C413.4,445.1,411.1,445.2,408.8,445.2z M418.7,444.7c-0.4-5.5-2.1-10.6-3.8-14.8c0.1,0,0.2,0,0.3-0.1c2.4,4.7,5.8,9.8,8.4,14.1
		C422,444.2,420.4,444.5,418.7,444.7z M418.5,429.8c5.6,4,12.2,8.7,14.6,10.9c-1.9,1.1-4,1.9-6.3,2.5
		C424.5,438.8,421.1,434.2,418.5,429.8z M436.8,437.9c-0.4,0.4-0.8,0.8-1.2,1.1c-2.1-1.9-7.6-5.9-13-9.7c3.6,1,7.4,2.4,16.8,4.2
		C438.7,435.3,437.9,436.8,436.8,437.9z M456.5,407.3c-0.1,0.1-0.2,0.1-0.3,0.2c-3.9,2.9-8.1,8.7-9.8,10.8c-1.4,1.7-2.4,3.5-3.3,5.3
		c-3.8,0.2-7.7,0-11.5-0.3c3.1-4.4,7.4-12.2,8.6-13.7c1.5-2,6.4-8.7,14.2-12.2c0.4-0.2,0.7-0.3,1.1-0.4
		C455.9,400.7,456.8,404.4,456.5,407.3z"/>
	<path id="cap_and_book" fill="#FFFFFF" d="M325.4,358.1l35.9,15.2l42-20.4l-11.3-6.3v3.9v1.7l-1.6,0.7c-1.3,0.5-2.7,0.7-4.1,0.7
		c-1.3,0-2.7-0.2-3.9-0.6v1.1l-0.9,0.8c-5.2,4.6-12.7,6.1-19.5,6.1c-6.7,0-15.1-1.8-20.5-6l-1-0.8v-5l-17.2,7.9
		c-2.2,3.6-2.4,9.7,0.5,13.3l0.2,0.2l0.2,0.1l37.9,17.4l0.7,0.3l0.5-0.5l40.3-21.3l0-1.8l-1.3-0.9l0,0.9l-40.1,20.9l-36.9-16.9
		C323.2,366.1,323.3,360.9,325.4,358.1L325.4,358.1z M379.8,337.9V353c-9.2,8.1-28.6,6.4-36.7,0v-15.7l18.7,6L379.8,337.9
		L379.8,337.9z M384.5,343.5c-0.4-0.4-0.6-1-0.6-1.6c0-1.1,0.7-2,1.7-2.3v-5.3l1.3-0.4v5.7c0.9,0.3,1.6,1.2,1.6,2.2
		c0,0.6-0.2,1.1-0.6,1.6c0.9,0.4,1.3,1,1.4,1.7c0,1.8,0,3.6,0,5.4c-0.9,0.4-2,0.5-3.1,0.5c-1.1,0-2.2-0.1-3.1-0.5c0-1.8,0-3.6,0-5.4
		C383.2,344.5,383.6,343.9,384.5,343.5L384.5,343.5z M331.8,328l0,3.2l30,9.6l23.8-7.1V332l-20.3-2.1c-0.6,0.5-1.7,0.8-3,0.8
		c-1.9,0-3.4-0.7-3.4-1.6s1.5-1.6,3.4-1.6c1.5,0,2.8,0.5,3.3,1.2l20.8,2.1l0.6,0.1v0.6v1.9l6.6-2l0-3l-31.4-8.3L331.8,328L331.8,328
		z M362.4,381.3l40-19.9l0,0.8l-39.9,19.9L362.4,381.3L362.4,381.3z M362.2,378.3l40-19.8l0,0.8l-40,19.8L362.2,378.3L362.2,378.3z
		 M362,376l40.3-20.1l0,0.8L362,376.8L362,376z"/>
	<rect id="pedestal" x="314" y="550" fill="#600000" width="172" height="72"/>
</g>
<g id="star_banners">
	<defs>
		<path id="SVGID_1_" d="M290.6,544h218.9l209.1-143.3c0-0.2,0-0.5,0-0.7c0-175.9-142.6-318.5-318.5-318.5S81.5,224.1,81.5,400
			c0,0.2,0,0.5,0,0.7L290.6,544z"/>
	</defs>
	<clipPath id="SVGID_2_">
		<use xlink:href="#SVGID_1_"  overflow="visible"/>
	</clipPath>
	<g clip-path="url(#SVGID_2_)">
		<g>
			<rect x="151" y="41" fill="#600000" width="9" height="719"/>
			<path fill="#600000" d="M254,296.9V41h-82v719h82V388.5c-10.8-13.8-18.4-30.3-18.4-51c0-4.4,0.6-15.7,6.1-26.3
				C244.8,305.2,248.9,300.4,254,296.9z M208.2,232.9l3.8-6.7l3.8,6.7l7.6,1.6l-5.2,5.7l0.9,7.7l-7.1-3.2l-7.1,3.2l0.9-7.7l-5.2-5.7
				L208.2,232.9z M219.1,431.9l-7.1-3.2l-7.1,3.2l0.9-7.7l-5.2-5.7l7.6-1.6l3.8-6.7l3.8,6.7l7.6,1.6l-5.2,5.7L219.1,431.9z
				 M219.2,332.2l0.9,7.7l-7.1-3.2l-7.1,3.2l0.9-7.7l-5.2-5.7l7.6-1.6l3.8-6.7l3.8,6.7l7.6,1.6L219.2,332.2z"/>
		</g>
		<g>
			<path fill="#600000" d="M275,291.4V41h-9v251.7C268.8,292,271.8,291.6,275,291.4z"/>
			<path fill="#600000" d="M266,402.7V760h9V410.8C271.9,408.2,268.9,405.5,266,402.7z"/>
		</g>
	</g>
	<g clip-path="url(#SVGID_2_)">
		<g>
			<rect x="640" y="41" fill="#600000" width="9" height="719"/>
		</g>
		<path fill="#600000" d="M546,41v256.1c5.1,3.5,9.3,8.4,12.4,14.5c5.4,10.7,6,22.1,6,26.5c0,20.6-7.6,37.2-18.4,51.1V760h82V41H546
			z M582.2,232.4l3.8-6.7l3.8,6.7l7.6,1.6l-5.2,5.7l0.9,7.7l-7.1-3.2l-7.1,3.2l0.9-7.7l-5.2-5.7L582.2,232.4z M593.1,431.4l-7.1-3.2
			l-7.1,3.2l0.9-7.7l-5.2-5.7l7.6-1.6l3.8-6.7l3.8,6.7l7.6,1.6l-5.2,5.7L593.1,431.4z M593.2,331.7l0.9,7.7l-7.1-3.2l-7.1,3.2
			l0.9-7.7l-5.2-5.7l7.6-1.6l3.8-6.7l3.8,6.7l7.6,1.6L593.2,331.7z"/>
		<g>
			<path fill="#600000" d="M534,291.8V41h-9v249.6C528.2,290.7,531.2,291.1,534,291.8z"/>
			<path fill="#600000" d="M525,410.5V760h9V402.4C531.1,405.2,528.1,407.9,525,410.5z"/>
		</g>
	</g>
</g>
<g>
	<path fill="#600000" d="M275,319.8c-4.3,0.7-7.2,3.8-9,7.8v30.1c2,6.5,5.1,12.3,9,17.7V319.8z"/>
</g>
<g>
	<path fill="#600000" d="M534,327.3c-2.6-5.3-6.5-7-9-7.5v55.6c3.9-5.4,7-11.2,9-17.7V327.3z"/>
</g>
<path fill="#600000" d="M265.9,108.8c-10.2,20.2-15.9,43.1-15.9,67.3c0,47.8,22.4,90.4,57.3,117.9h0.4h184.8h0.4
	c34.9-27.5,57.3-70.1,57.3-117.9c0-24.2-5.7-47-15.9-67.3C493.3,90,447.9,79.5,400,79.5S306.7,90,265.9,108.8z"/>
<g>
	<linearGradient id="SVGID_3_" gradientUnits="userSpaceOnUse" x1="400" y1="234.0522" x2="400" y2="98">
		<stop  offset="0.52" style="stop-color:#600000"/>
		<stop  offset="1" style="stop-color:#FFFFFF"/>
	</linearGradient>
	<path fill="url(#SVGID_3_)" d="M172,234.1C223.3,163.7,306.3,118,400,118s176.7,45.7,228,116.1V202C572.6,138.3,491,98,400,98
		c-91,0-172.6,40.3-228,104V234.1z"/>
</g>
<g>
	<defs>
		<polygon id="SVGID_4_" points="571,299 494,299 306,299 228,299 48,299 48,630 306,630 306,465 494,465 494,630 752,630 752,299 
					"/>
	</defs>
	<clipPath id="SVGID_5_">
		<use xlink:href="#SVGID_4_"  overflow="visible"/>
	</clipPath>
	<radialGradient id="SVGID_6_" cx="400.6657" cy="606.3712" r="239.9295" gradientUnits="userSpaceOnUse">
		<stop  offset="0.2" style="stop-color:#FFFFFF"/>
		<stop  offset="0.8" style="stop-color:#600000"/>
	</radialGradient>
	<path clip-path="url(#SVGID_5_)" fill="url(#SVGID_6_)" d="M406,595h-12v7.9L79.1,387.1c-0.1,2.6-0.1,5.3-0.1,7.9
		c0,21.7,2.2,42.9,6.3,63.5L394,604.2v0.7L96.5,499.8c6.9,19.9,15.7,39,26.2,56.9L394,605.9v1.1h12v-1.1l271.3-49.2
		c10.5-17.9,19.3-37,26.2-56.9L406,604.9v-0.7l308.7-145.7c4.1-20.5,6.3-41.7,6.3-63.5c0-2.6,0-5.3-0.1-7.9L406,602.9V595z"/>
</g>
<path fill="#600000" d="M141.2,589c58.3,79.7,152.5,131.5,258.8,131.5S600.5,668.7,658.8,589H141.2z"/>
<path id="outer_ring" fill="#600000" d="M400,40C201.2,40,40,201.2,40,400s161.2,360,360,360c198.8,0,360-161.2,360-360
	S598.8,40,400,40z M400,732C216.6,732,68,583.4,68,400S216.6,68,400,68s332,148.6,332,332S583.4,732,400,732z"/>
<g id="inner_ring">
	<path fill="#600000" d="M400,74C220,74,74,220,74,400c0,180,146,326,326,326s326-146,326-326C726,220,580,74,400,74z M400,694.5
		c-162.6,0-294.5-131.9-294.5-294.5S237.4,105.5,400,105.5S694.5,237.4,694.5,400S562.6,694.5,400,694.5z"/>
</g>
<g id="text">
	<g>
		<path fill="#FFFFFF" d="M236.7,626.3c-0.4-4.1-2.2-8.3-6.8-8.3c-2.3,0-3.9,0.8-5.3,2.6c-1.6,2.1-2.6,5.6-2.6,9.7
			c0,3.3,0.7,6.3,2,8.4c1.4,2.4,3.5,3.5,6.1,3.5c3.5,0,6.2-1.8,7.7-6.2l1.2,0.7c-1.6,5.2-5.2,7.7-10.7,7.7c-4.4,0-7.7-1.4-9.8-4.2
			c-1.8-2.3-2.8-5.6-2.8-9.3c0-4.9,1.7-8.6,4.5-11.1c2.1-2,5.1-3.2,9-3.2c3.6,0,5.9,1,7.2,2.3l0.8-2.1l1.1,0.3
			c-0.3,2.5-0.5,6.3-0.3,9.1L236.7,626.3z"/>
		<path fill="#FFFFFF" d="M255.5,616.6c7.9,0,12.5,5.9,12.5,13.5c0,9-4.7,14.3-12.8,14.3c-8.1,0-12.8-5.4-12.8-13.7
			C242.4,623.1,246.7,616.6,255.5,616.6L255.5,616.6z M255,617.9c-1.9,0-3.5,1-4.6,2.9c-1,1.7-1.7,5-1.7,9.3s0.9,8.2,2,10.1
			c1.2,2,2.8,2.9,4.7,2.9c1.8,0,3.4-0.8,4.5-2.8c1-1.9,1.6-5.4,1.6-9.4c0-4.1-0.6-7.8-1.7-9.9C258.7,619,257.2,617.9,255,617.9
			L255,617.9z"/>
		<path fill="#FFFFFF" d="M292.2,635.4c-0.3,2-0.7,5.9-0.9,8.5c-0.8-0.1-2.6-0.1-5.1-0.1c-2.4,0-5.7,0-8.9,0c-1.8,0-5.5,0.1-6.6,0.1
			l0-1.3l2.3-0.2c0.9-0.1,1.2-0.3,1.3-1c0.1-1.3,0.2-4,0.2-7.4v-8.8c0-3.4,0-4.7-0.1-5.5c0-0.7-0.3-0.9-1.1-1l-2.1-0.2l0-1.3
			c1.1,0,4.3,0.1,6.2,0.1c1.9,0,3.9-0.1,6.2-0.1l0.1,1.3l-2.3,0.2c-0.8,0.1-1.1,0.3-1.2,1c-0.1,1.6-0.2,3.9-0.2,7.3v7.3
			c0,3.4,0,6.3,0.1,7.4c0,0.5,0.3,0.8,2.2,0.8c3.9,0,5.3-0.3,6.3-1.6c1-1.3,1.7-3.2,2.3-5.4L292.2,635.4z"/>
		<path fill="#FFFFFF" d="M315.3,635.4c-0.3,2-0.7,5.9-0.9,8.5c-0.8-0.1-2.6-0.1-5.1-0.1c-2.4,0-5.7,0-8.9,0c-1.8,0-5.5,0.1-6.6,0.1
			l0-1.3l2.3-0.2c0.9-0.1,1.2-0.3,1.3-1c0.1-1.3,0.2-4,0.2-7.4v-8.8c0-3.4,0-4.7-0.1-5.5c0-0.7-0.3-0.9-1.1-1l-2.1-0.2l0-1.3
			c1.1,0,4.3,0.1,6.2,0.1c1.9,0,3.9-0.1,6.2-0.1l0.1,1.3l-2.3,0.2c-0.8,0.1-1.1,0.3-1.2,1c-0.1,1.6-0.2,3.9-0.2,7.3v7.3
			c0,3.4,0,6.3,0.1,7.4c0,0.5,0.3,0.8,2.2,0.8c3.9,0,5.3-0.3,6.3-1.6c1-1.3,1.7-3.2,2.3-5.4L315.3,635.4z"/>
		<path fill="#FFFFFF" d="M317.2,617.2c1.3,0,4.6,0.1,6.8,0.1h7.4c2.7,0,5-0.1,6-0.3c-0.2,1.3-0.2,5.4-0.1,7.5l-1.2,0.1
			c-0.2-1.2-0.6-2.7-1.2-3.9c-0.8-1.7-1.6-2.1-5.6-2.1h-2.1c-0.5,0-0.7,0.2-0.8,0.7c-0.1,1.3-0.2,3.5-0.2,5.9v4.1c0.5,0,1.6,0,2.2,0
			c3.4,0,4.1-1,4.5-3.7h1.1c-0.3,2.9-0.3,7.1-0.1,9.6l-1.2,0c-0.4-3-0.8-4.4-4.4-4.4c-0.7,0-1.7,0-2.1,0.1v3.4c0,2.8,0,5.5,0.1,7
			c0,0.8,0.3,1,3.2,1c3.6,0,4.8-0.2,6.1-1.4c1.2-1.1,2.1-3.5,2.6-5.2l1.1,0.2c0,1-0.9,6.8-1.1,7.9c-1.6-0.1-4.3-0.2-9-0.2h-5.2
			c-2.4,0-5.7,0.1-7.2,0.1l0.1-1.3l2.4-0.2c0.8-0.1,1.1-0.4,1.2-1.4c0.1-1.6,0.2-3.8,0.2-6.9v-8.2c0-3.2,0-5.1-0.1-6.3
			c0-0.7-0.4-1-1.3-1l-2.1-0.2V617.2z"/>
		<path fill="#FFFFFF" d="M363.7,626.3c-0.5-5.5-3.2-8.3-7.1-8.3c-2.4,0-4.2,0.8-5.8,3.1c-1.5,2.2-2.3,5.6-2.3,9.5
			c0,3.5,0.7,6.8,1.9,8.9c1.4,2.4,3.4,3.6,6,3.6c2.3,0,3.4-0.8,3.5-2.3c0.2-1.3,0.2-3.7,0.2-5.6c0-2.3-0.2-2.6-2.1-2.8l-2.1-0.2
			l-0.1-1.3c1.5,0,4.8,0.1,6.6,0.1c1.9,0,4.4,0,5.5-0.1l0,1.2c-1.9,0.3-2.3,0.5-2.4,1.4c-0.2,1.7-0.1,3.1-0.1,4.4
			c0,2.3,0.1,3.4,0.3,4.5c-1,0.3-2.8,0.8-4.1,1.1c-1.6,0.5-3.9,0.9-5.8,0.9c-5.4,0-8.8-1.4-11.1-4.4c-1.7-2.2-2.6-5.4-2.6-9.3
			c0-5.3,2.1-9.5,5.9-12c2.3-1.5,4.8-2.1,8.3-2.1c3.8,0,6.3,1.3,7.3,2.2l0.9-2.2l1.1,0.3c-0.3,1.5-0.8,5.9-0.6,9.3H363.7z"/>
		<path fill="#FFFFFF" d="M373.2,625c0-3,0-4.2-0.1-5.1c0-1.2-0.6-1.3-3.3-1.5l0-1.3c1.2,0,3.8,0.1,6.1,0.1c2.1,0,4.7-0.1,6-0.1
			l0,1.3c-2.6,0.1-3.1,0.3-3.2,1.3c0,0.9-0.1,2.4-0.1,5.3v10.2c0,3.2,0.1,4.9,0.2,6c0,1.1,0.6,1.3,3.2,1.4l-0.1,1.3
			c-1.5,0-4-0.1-6.3-0.1c-2.1,0-4.7,0.1-6,0.1l0-1.3c2.6-0.1,3.2-0.3,3.3-1.3c0.1-0.9,0.2-2.6,0.2-6V625z"/>
		<path fill="#FFFFFF" d="M410.1,643.9c-1.1,0-3.4-0.1-6-0.1c-2.4,0-3.9,0.1-6.2,0.1v-1.3c2.4-0.2,2.8-0.4,2.6-1.3
			c-0.4-1.6-1.4-5-2.1-7.4c-0.8,0-2.4,0-4,0c-1.5,0-3,0-3.8,0c-1,3.4-1.6,5.3-1.8,6.3c-0.4,1.8,0,2.2,3.4,2.4v1.3
			c-1.4,0-2.8-0.1-4.7-0.1c-1.3,0-3.3,0.1-4.9,0.1v-1.3c2.3-0.2,3.1-0.5,4-2.7c1.3-3.4,5.8-16.5,6.9-19.7c0.4-1.2,0.5-1.8,0.7-2.6
			c1,0,3.9-0.3,4.8-0.8c2,6.9,6.3,21.2,7.7,24.6c0.3,0.8,0.8,1,1.7,1.1l1.6,0.2V643.9z M391.2,632.3c0.8,0,2.2,0,3.5,0
			c1.3,0,2.7,0,3.3,0c-1-3.7-2.2-8.1-3.2-11.5C393.9,623.6,392.8,626.8,391.2,632.3z"/>
		<path fill="#FFFFFF" d="M423.2,633.7c0,4.2,0.1,6.3,0.2,7.4c0.1,0.8,0.3,1.1,1.1,1.2c1.3,0.2,1.8,0.3,3,0.3l-0.1,1.3
			c-1.3,0-4.2-0.1-7.4-0.1c-2.2,0-4.7,0.1-6.6,0.1l-0.2-1.2c0.9,0,1.6-0.2,2.9-0.3c0.9-0.1,1.3-0.3,1.4-1.1c0.1-1.4,0.2-3.2,0.2-7.5
			v-9.3c0-2.6,0-4.7,0-5.8c-4.7,0-5.2,0.5-6,2.1c-0.8,1.6-1.3,3.2-1.8,4.9l-1.1-0.3c0.4-2.3,0.8-6.6,0.9-8.4
			c1.3,0.3,4.3,0.4,8.9,0.4h3.8c5.7,0,7.9,0,9.7-0.4c-0.1,0.7-0.5,4.5-0.4,8l-1.2,0.4c-0.4-2.7-0.9-4.4-1.3-5.2
			c-0.5-1.1-1.3-1.6-5.8-1.5c0,1.1,0,3.2,0,5.4V633.7z"/>
		<path fill="#FFFFFF" d="M434.3,617.2c1.3,0,4.6,0.1,6.8,0.1h7.4c2.7,0,5-0.1,6-0.3c-0.2,1.3-0.2,5.4-0.1,7.5l-1.2,0.1
			c-0.2-1.2-0.6-2.7-1.2-3.9c-0.8-1.7-1.6-2.1-5.6-2.1h-2.1c-0.5,0-0.7,0.2-0.8,0.7c-0.1,1.3-0.2,3.5-0.2,5.9v4.1c0.5,0,1.6,0,2.2,0
			c3.4,0,4.1-1,4.5-3.7h1.1c-0.3,2.9-0.3,7.1-0.1,9.6l-1.2,0c-0.4-3-0.8-4.4-4.4-4.4c-0.7,0-1.7,0-2.1,0.1v3.4c0,2.8,0,5.5,0.1,7
			c0,0.8,0.3,1,3.2,1c3.6,0,4.8-0.2,6.1-1.4c1.2-1.1,2.1-3.5,2.6-5.2l1.1,0.2c0,1-0.9,6.8-1.1,7.9c-1.6-0.1-4.3-0.2-9-0.2h-5.2
			c-2.4,0-5.7,0.1-7.2,0.1l0.1-1.3l2.4-0.2c0.8-0.1,1.1-0.4,1.2-1.4c0.1-1.6,0.2-3.8,0.2-6.9v-8.2c0-3.2,0-5.1-0.1-6.3
			c0-0.7-0.4-1-1.3-1l-2.1-0.2V617.2z"/>
		<path fill="#FFFFFF" d="M469.7,634.6c0,4.9,2.3,8.4,6.7,8.4c2.7,0,4.7-1.5,4.7-4.5c0-1.6-0.6-2.8-2-3.6c-1.2-0.7-4.7-2.6-6.8-3.8
			c-2.7-1.6-3.8-3.9-3.8-6.6c0-5,3.6-7.9,8.7-7.9c2.5,0,4.7,0.7,5.6,1.6l0.8-1.8l1.1,0.3c-0.6,3.4-0.7,6.7-0.7,8.3l-1.2,0.2
			c-0.2-4.6-2.5-7.2-5.6-7.2c-2.7,0-4.2,1.8-4.2,4.3c0,1.7,0.8,3.1,2.6,4.1c3.3,1.8,5.6,2.9,7.2,3.9c2.1,1.3,3.2,3.1,3.2,5.8
			c0,5.8-4.7,8.3-10.3,8.3c-2.6,0-5.7-0.8-7.6-1.6c0.3-2.4,0.3-5.5,0.4-8L469.7,634.6z"/>
		<path fill="#FFFFFF" d="M514.8,643.9c-1.1,0-3.4-0.1-6-0.1c-2.4,0-3.9,0.1-6.2,0.1v-1.3c2.4-0.2,2.8-0.4,2.6-1.3
			c-0.4-1.6-1.4-5-2.1-7.4c-0.8,0-2.4,0-4,0c-1.5,0-3,0-3.8,0c-1.1,3.4-1.6,5.3-1.8,6.3c-0.4,1.8,0,2.2,3.4,2.4v1.3
			c-1.4,0-2.8-0.1-4.7-0.1c-1.3,0-3.3,0.1-4.9,0.1v-1.3c2.3-0.2,3.1-0.5,4-2.7c1.3-3.4,5.8-16.5,6.9-19.7c0.4-1.2,0.5-1.8,0.7-2.6
			c1,0,3.9-0.3,4.8-0.8c2,6.9,6.3,21.2,7.7,24.6c0.3,0.8,0.8,1,1.7,1.1l1.6,0.2V643.9z M495.9,632.3c0.8,0,2.2,0,3.5,0
			c1.3,0,2.7,0,3.3,0c-1-3.7-2.2-8.1-3.2-11.5C498.6,623.6,497.5,626.8,495.9,632.3z"/>
		<path fill="#FFFFFF" d="M536.3,635.4c-0.3,2-0.7,5.9-0.9,8.5c-0.8-0.1-2.6-0.1-5.1-0.1c-2.4,0-5.7,0-8.9,0c-1.8,0-5.5,0.1-6.6,0.1
			l0-1.3l2.3-0.2c0.9-0.1,1.2-0.3,1.3-1c0.1-1.3,0.2-4,0.2-7.4v-8.8c0-3.4,0-4.7-0.1-5.5c0-0.7-0.3-0.9-1.1-1l-2.1-0.2l0-1.3
			c1.1,0,4.3,0.1,6.2,0.1c1.9,0,3.9-0.1,6.2-0.1l0.1,1.3l-2.3,0.2c-0.8,0.1-1.1,0.3-1.2,1c-0.1,1.6-0.2,3.9-0.2,7.3v7.3
			c0,3.4,0,6.3,0.1,7.4c0,0.5,0.3,0.8,2.2,0.8c3.9,0,5.3-0.3,6.3-1.6c1-1.3,1.7-3.2,2.3-5.4L536.3,635.4z"/>
		<path fill="#FFFFFF" d="M541,634.6c0,4.9,2.3,8.4,6.7,8.4c2.7,0,4.7-1.5,4.7-4.5c0-1.6-0.6-2.8-2-3.6c-1.2-0.7-4.7-2.6-6.8-3.8
			c-2.7-1.6-3.8-3.9-3.8-6.6c0-5,3.6-7.9,8.7-7.9c2.5,0,4.7,0.7,5.6,1.6l0.8-1.8l1.1,0.3c-0.6,3.4-0.7,6.7-0.7,8.3l-1.2,0.2
			c-0.2-4.6-2.5-7.2-5.6-7.2c-2.7,0-4.2,1.8-4.2,4.3c0,1.7,0.8,3.1,2.6,4.1c3.3,1.8,5.6,2.9,7.2,3.9c2.1,1.3,3.2,3.1,3.2,5.8
			c0,5.8-4.7,8.3-10.3,8.3c-2.6,0-5.7-0.8-7.6-1.6c0.3-2.4,0.3-5.5,0.4-8L541,634.6z"/>
		<path fill="#FFFFFF" d="M586,643.9c-1.1,0-3.4-0.1-6-0.1c-2.4,0-3.9,0.1-6.2,0.1v-1.3c2.4-0.2,2.8-0.4,2.6-1.3
			c-0.4-1.6-1.4-5-2.1-7.4c-0.8,0-2.4,0-4,0c-1.5,0-3,0-3.8,0c-1.1,3.4-1.6,5.3-1.8,6.3c-0.4,1.8,0,2.2,3.4,2.4v1.3
			c-1.4,0-2.8-0.1-4.7-0.1c-1.3,0-3.3,0.1-4.9,0.1v-1.3c2.3-0.2,3.1-0.5,4-2.7c1.3-3.4,5.8-16.5,6.9-19.7c0.4-1.2,0.5-1.8,0.7-2.6
			c1,0,3.9-0.3,4.8-0.8c2,6.9,6.3,21.2,7.7,24.6c0.3,0.8,0.8,1,1.7,1.1l1.6,0.2V643.9z M567.1,632.3c0.8,0,2.2,0,3.5,0
			c1.3,0,2.7,0,3.3,0c-1-3.7-2.2-8.1-3.2-11.5C569.9,623.6,568.8,626.8,567.1,632.3z"/>
	</g>
	<g>
		<path fill="#FFFFFF" d="M354.5,202.6c-1.1-11.7-6.3-23.6-19.4-23.6c-6.6,0-11.1,2.4-14.9,7.4c-4.5,6-7.3,16-7.3,27.4
			c0,9.4,1.9,18,5.6,23.8c3.9,6.8,10,10,17.3,10c10,0,17.5-5.1,21.8-17.6l3.5,2c-4.4,14.7-14.7,21.8-30.4,21.8
			c-12.4,0-21.9-4.1-27.9-11.8c-5.2-6.4-7.9-15.9-7.9-26.5c0-13.8,4.8-24.4,12.6-31.5c6.1-5.7,14.5-9.1,25.6-9.1
			c10.1,0,16.8,2.7,20.4,6.4l2.3-6.1l3,1c-0.8,7-1.4,18-1,25.8L354.5,202.6z"/>
		<path fill="#FFFFFF" d="M375.7,226.1c-0.1,13.8,6.6,23.7,19,23.7c7.6,0,13.4-4.3,13.4-12.8c0-4.5-1.8-7.9-5.6-10.3
			c-3.3-2-13.5-7.3-19.3-10.7c-7.6-4.5-10.7-11-10.7-18.7c0-14.2,10.3-22.4,24.6-22.4c7,0,13.2,2,16,4.7l2.3-5.1l3.1,0.7
			c-1.8,9.7-1.9,19-1.9,23.6l-3.3,0.5c-0.5-13-7.2-20.5-15.9-20.5c-7.6,0-11.9,5.1-11.9,12.3c0,4.9,2.1,8.7,7.4,11.6
			c9.3,5.1,15.9,8.2,20.4,11.2c6.1,3.7,9.1,8.8,9.1,16.5c0,16.3-13.2,23.6-29.3,23.6c-7.4,0-16.2-2.3-21.5-4.4
			c0.8-6.8,1-15.7,1.1-22.7L375.7,226.1z"/>
		<path fill="#FFFFFF" d="M469.7,175.1c22.5,0,35.4,16.7,35.4,38.3c0,25.5-13.4,40.5-36.4,40.5c-23.1,0-36.3-15.4-36.3-38.9
			c0-21.5,12.3-39.9,37.1-39.9H469.7z M468.5,178.8c-5.5,0-9.9,2.7-13,8.1c-2.7,4.9-4.9,14.1-4.9,26.4c0,12.3,2.5,23.4,5.7,28.7
			c3.5,5.7,7.9,8.1,13.4,8.1c5.1,0,9.5-2.1,12.8-8c2.9-5.4,4.5-15.3,4.5-26.7c0-11.6-1.8-22.2-4.9-28c-3.1-5.6-7.4-8.6-13.5-8.6
			H468.5z"/>
	</g>
	<rect id="underline_bottom" x="300" y="655" fill="#FFFFFF" width="200" height="3"/>
	<rect id="underline_top" x="325" y="273" fill="#FFFFFF" width="150" height="3"/>
	<g>
		<path fill="#FFFFFF" d="M361.8,667.9c7.9,0,12.5,5.9,12.5,13.5c0,9-4.7,14.3-12.8,14.3c-8.1,0-12.8-5.4-12.8-13.7
			C348.7,674.4,353,667.9,361.8,667.9L361.8,667.9z M361.3,669.2c-1.9,0-3.5,1-4.6,2.9c-1,1.7-1.7,5-1.7,9.3s0.9,8.2,2,10.1
			c1.2,2,2.8,2.9,4.7,2.9c1.8,0,3.4-0.8,4.5-2.8c1-1.9,1.6-5.4,1.6-9.4c0-4.1-0.6-7.8-1.7-9.9C365,670.2,363.5,669.2,361.3,669.2
			L361.3,669.2z"/>
		<path fill="#FFFFFF" d="M380.8,676.4c0-3.1,0-4.5-0.1-5.4c0-0.7-0.2-1-1-1.1l-2.6-0.3l0.3-1.2c0.9,0,3.4,0.1,5.4,0.1
			c1.9,0,4.2-0.2,7.1-0.2c4.4,0,6.1,0.8,7.4,2c1.4,1.3,2.2,3.3,2.2,5.7c0,2.6-0.8,4.6-2.2,6c-1.7,1.7-4.2,2.4-6.6,2.4
			c-1.2,0-2.4-0.2-3-0.4l0.1-1.3c0.5,0.1,1.3,0.2,1.9,0.2c1.1,0,2.1-0.5,2.6-1.3c0.7-1,1.2-2.9,1.2-5.3c0-2.4-0.5-4.2-1.3-5.1
			c-0.8-1-1.9-1.4-3.7-1.4c-1.6,0-1.9,0.2-1.9,0.8c-0.1,1.2-0.2,3.3-0.2,6.5v5.5v5.3c0,2.4,0.1,3.7,0.1,4.5c0.1,0.9,0.4,1.1,1.5,1.2
			l2.5,0.3l0,1.2c-1.9,0-4.3-0.1-7.2-0.1c-2.2,0-4.5,0.1-6.2,0.1l0-1.2l1.7-0.2c1.4-0.1,1.7-0.3,1.8-1.6c0.1-1.8,0.2-4.7,0.2-7.8
			V676.4z"/>
		<path fill="#FFFFFF" d="M401.3,668.4c1.3,0,4.6,0.1,6.8,0.1h7.4c2.7,0,5-0.1,6-0.3c-0.2,1.3-0.2,5.4-0.1,7.5l-1.2,0.1
			c-0.2-1.2-0.6-2.7-1.2-3.9c-0.8-1.7-1.6-2.1-5.6-2.1h-2.1c-0.5,0-0.7,0.2-0.8,0.7c-0.1,1.3-0.2,3.5-0.2,5.9v4.1c0.5,0,1.6,0,2.2,0
			c3.4,0,4.1-1,4.5-3.7h1.1c-0.3,2.9-0.3,7.1-0.1,9.6l-1.2,0c-0.4-3-0.8-4.4-4.4-4.4c-0.7,0-1.7,0-2.1,0.1v3.4c0,2.8,0,5.5,0.1,7
			c0,0.8,0.3,1,3.2,1c3.6,0,4.8-0.2,6.1-1.4c1.2-1.1,2.1-3.5,2.6-5.2l1.1,0.2c0,1-0.9,6.8-1.1,7.9c-1.6-0.1-4.3-0.2-9-0.2h-5.2
			c-2.4,0-5.7,0.1-7.2,0.1l0.1-1.3l2.4-0.2c0.8-0.1,1.1-0.4,1.2-1.4c0.1-1.6,0.2-3.8,0.2-6.9v-8.2c0-3.2,0-5.1-0.1-6.3
			c0-0.7-0.4-1-1.3-1l-2.1-0.2V668.4z"/>
		<path fill="#FFFFFF" d="M425.5,668.4c0.8,0,3.1,0.1,5,0.1c1.7,0,2.8,0,4.1-0.1c0.4,0.7,1,1.6,2.2,3.5c1.2,1.9,5.1,7.6,10.9,16
			c0-10.8-0.2-15.1-0.4-16.2c-0.2-1.4-0.7-1.8-2.2-1.9l-2.1-0.1l0.3-1.3c1.8,0,3.7,0.1,5.2,0.1c1.4,0,3.3-0.1,4.5-0.1l0,1.2
			c-0.8,0.1-1.5,0.2-2.1,0.3c-0.8,0.2-1,0.5-1.2,1.5c-0.3,1.5-0.5,6.7-0.5,13.1V695c-0.9,0-2.6,0.3-3.4,0.4
			c-3.7-5.8-10.2-15.6-14.9-22.7c0,9.5,0.1,17.5,0.4,19.1c0.2,1,0.7,1.5,1.4,1.6c0.7,0.1,1.7,0.3,2.9,0.3l-0.1,1.3
			c-1.5,0-3.4-0.1-5.8-0.1c-2,0-3.5,0.1-4.5,0.1l0-1.3c0.5,0,1.3-0.1,2.1-0.3c1-0.1,1.3-0.8,1.5-2c0.2-1.6,0.6-10,0.6-20
			c-0.1-0.4-0.3-0.7-0.5-1.1c-0.3-0.3-0.7-0.6-1.6-0.7l-1.9-0.2V668.4z"/>
	</g>
</g>
</svg>
